/* XPM */
static char *b1de0cfc7d6e438eac1543cd2943f2e4eOipzWpgUM8hnTaj[] = {
/* columns rows colors chars-per-pixel */
"64 64 15 1 ",
"  c #28200C",
". c #382C14",
"X c #403018",
"o c #483818",
"O c #543C1C",
"+ c #5C4020",
"@ c #6C4824",
"# c #744C28",
"$ c #80502C",
"% c #885830",
"& c #905C34",
"* c #9C6038",
"= c #A0643C",
"- c #A86840",
"; c #C87C4C",
/* pixels */
"&&&&&&&&&&$+O+O+O@@%&&=-+ooooo+$$%*******%+-********%o=&&&&&&&&&",
"&&&&&&&&&$OO+OOO+@#&&=--oooooo$$$%O%****%+-********%o=&&&&&&&&&&",
"&&&&&&&$++OOOO+++@$&=--$+oooo+$$%Ooo%**%%-***&&&**%o$=&&%&&&&&&&",
"&&&&&&$+OOO+OOO+@#$=--$+@+oo+$&%OOoooO%%+-**&&***%oo=&&&&&&&&%%&",
"&&&&$+Ooo+oo@+@@$&=--++@##+o$%%OOoOoOoo+-*&*&***%..O=&&&&&&%&&&&",
"&&&$+.OoOo@+@@@$&--$+@@###+$%#++oOooooX-**&&*&*%...=&&%%%&&&&%&&",
"&$$X.OoOo@@@$$$%-*+@####%$=%#+OOOOOoOX=*&&*%**%....+&&&&%&%&%&&&",
"$+X.ooOO@$$$$%***+@###$%%=%#++OO+ooOX&%*%%&&*%o.O#o.+%%%%%%&&%&&",
"+..X@$$$$%%**&%++###$%%=&&#++O+O+O+OX%&*%&%*%oO###oo.+#&%&%&%&&$",
".XOOO@****&*&++@##$%%%=&%#++++OOO+OX@#&%%%*%oO##%oooo.+%&%%%&%$+",
"O@$$@O*****++@##$&%&%=&##+++O+++O+X$@++%&%%o+#%%#ooOo.++$%&%$$O.",
"$$&%%#O*&@+O###$%%%%=%%#+++O+++++X+$@+oo%%o+$%%&+Oooo.ooo$%$++X@",
"&&#OOOO@@@$@O@$$%&%=%##+++++++O+oO+%@++oo+$$%%&&#oOOo....o++O@$$",
"##oooooo$$$&*@oo%%==$#+++++O+++OX+@=$@+o$$@@%&&=%#OOo.$+.o+@$$$=",
"&%##oooo$$%%&*@oo====$+++++O+++oO@&&&@+$$@+%&&=&&%#Oo.+$o+$$$$=&",
"&&&&%#oo$$%&%*@oo=*==$$++++++Oo.@&&&&$+$@+#&==**&&##o.X+$$$$$$=&",
"&&&&&&&O$$%O&&%@=&***=$$+++++o. #$$$&$#@+#&=*****&%$$+X$$$$$$=&&",
"&&&&&&$O$$@+O%@o*==*===$++++oX o$$$$%%#+%&=**&&&**%oO+OO$$$$$=&%",
"&&&&&$O$$$$@+O$*&&&*&*==$++oX  +##$$$%@%&=*&&&&&*%ooO++OO$$$=&%&",
"%%&&$O$$$$$$$o=+&%*&&*==%$oX .o+####+$%&=*&&%&&*%oooO+++O$$=&&%%",
"%%&$O$$$+$$$$=$++%&&&*=*=$XX.o++++oX+%==*%%$%*%%oooO++++O$$=&&%&",
"%&$O$$&#++$$%=++++%***==&+XXoo+++XX+%=*&%$$%*%*%++&&&$++O$=&%%%%",
"$$O$&&#++X$%=$+++++*&==$++O+oOOOOX+%=%%#$%$@%&%o&+&&&$+O$$=%#&$$",
"$O$&#+++oX+%=+++++Oo&$+@+++OoXOX@#Xoo#$%%#%$$%o@+$$&&&$O$=&%%#$&",
"O$-+++++XO%=$+++++Oo%&%@@@@+++XO#&$Xoo#$%%$&%o$$O+$$&&$$$&%$##%#",
"$-&&+++XX$=$+++++Oo@&=%%@@@@+XX#&&&#Xoo$$%%$o@$+Oo$$$=$$%$#$###O",
"-&&&&+oX$*=$+++++Oo&=%%%%@@+XXO&&==#+Xoo$$&o@&$OOo%%++$&$@##$#O&",
"&&&&$XXO*=$++++++o@=%%%%%@@+Xo+$=&&&&ooOoOO@=$@+o+%%++&$+o@##O&-",
"&%&&@XX%*-$+++++Oo=%%%%%%%+Xo+$%$&&&&&+oOO$&%$O+o+*%$&$+oXX@O&-&",
"&%&$OX%*-$+++++Oo@%&%%%%%@Xo+$%#$$&&&&&O$%&=$@+o++++&$+OoXXo$-&%",
"%%&@X$*-$@+++++Oo&%%%%%%@Xo+$$##O$$&&&#$&&-=$++o$+$&$++oOOXO$&&&",
"%%$XO*-&%$@+++Oo@&%&%&%@Xo+$$%##@O##o@$&&--$@@o+$$&&$$+OX  $&$%%",
"%%@O%=&&&%$@++Oo%*&%%%@Xo+$$%###@OO.+@%&--;@@+o$$&&&&$X   .o$$%&",
"&$O%=&&&&&%$@Oo@%*&&&@Xo+$$%####@O.o+@%--;%%@o+$&&&&&X   Xo.O$&%",
"&OO&=&&&&&&%$@o+$%*&@XO+$$%%####+.Xo+$*--**%+o$&&&&&X   XO@o.O%%",
"&O%=&&&&&&&&%++#$%@@X++$%%%%$##@OXX+%=-*****O+&&&&&$   XO@OOo.$&",
"$$=&&&&&&&&$+++#$@XX$$&&&%%%%$#O.oo+$******$O$&&&&&X  XOO@OOOo$&",
"O=&&&&&&&&$++++#@XOO&&&&&&%%%%$.oo++$%*****OO&&&&&O  XOO@OOOo@$$",
".&&&&&&&&$+++++@X$Oo%&&&&&%%%%$.Xo+++%****#O&&&&&$ XXOOO@OOOo+$O",
"..&&&&&&$+++++Oo%#OXO&&&&&&%%%+XXoo++#%***+&&&&&&O XO@&@OOOOX+$.",
"...&&&&@oooO+oo%%#OXXO&&&&&%%#oooXXX@+%**#.+@&&&$ OO%&=@@OOoXOO.",
"oXO.&%@@oooOOo%%%OOXXo%&&&&%#oooooXXX@@%#O..+@&&OO@%&=-%@OOX XO.",
"XooO%@@++ooO@%%&#OOoXXo&&%$&++OoO+OOX+@%*$O..+@$@$%&=-=&@@O   X.",
"oOO%@@+@+@Oo@%&%OOoXOXoO%$&++O+OoooO#%%*-&$O..o@$%%&-=&&%@o. X..",
"oO%@@+@+++@@%%&#OOXooooO$&#+OoOOoOO+#%*-=*&$O.O$%%&-=&&&&@+. .o.",
"O%@@+@@++++%%&%OOoXoOOO$*&++++O+O++O%%-=*&%&$O+%%&==&&&&&@X . .O",
"%@@@@+@+@@%%&&#OoOOOOXX-*#+O+OooOoOO%%=*&&&&&$@%%&-&&&&&$+.. XO$",
"@@@+@@++@@%&*%OOOOoOXX&-#+++++++Oo++%=*&%&&&&&@%&*&&&&&&$+  XO%%",
"@@@+@@@@@%&&*#OOOOoX @-*$@+++O+OO++#%*&&&&%&&@@&*&&&&&&$+.X O%%@",
"@#@@@+@@%&&=#OOOOXX @-*%$$@+++++OOO$$&&&%%&&&@$*&%&&&&&$+.XO%*%@",
"@#@##@@%%&=#OOOOXX  &=&&%$$@++++++o@#&&&&&&&@$*%&&&%&&$+XXO%*@@@",
"@###@@@%&=*&$OOX.  O-*&&&%$$@+++++o+@$&&&&#@$&*&%%&&&&$+XO@&*&@@",
"#@#@#@%&=*&%%$OO   &=&&&&&%$$@+++OO+@$&&&@O$&*%%%%&%&$+oXO%**%&@",
"&@#@@%&=&%%%%@O.  O-*&&&&&&%$$@++oOO+$&&&O@&*$&$&&%&%$+oo@**&&&%",
"&%#@%%=&%%$%%O.   &=&&&&&&&&%$$@+oXO+@$&O@$%%$%$%%%&$+oo@&*&&%&%",
"&&$$%=%%%%%%$O.  O=*&&&&&&&&&%$$OX.OO@$O@$&$%$$%$$&%$+oo@*&%&&&%",
"&$$%=%%%$%%%$O  O%*%&&&&&&&&&&%$...OO@oO$&$&%$%$$%%@+oo@*&%&&&%%",
"$$$=%%$%%%$$$O  O*&&&&&&&&&&&&&O    OXo@%%$$$$$%$$%@oo@%*%%%&%&&",
"$$=%%%%%$#%$@. O%&%&&&&&&&&&&%O.    .O@%$##+$+$$$%@+o@%*%%&%&&%&",
"$$$%%$$#$$$%@. $&%&%%%&&&&&&%O       @+##++#+$##$$@oo@*%%%%&%&&&",
"$O$#$$%#$$#$O O%%%%%%%%&&%&%O         #++#+#$#$+%@+o@*%%&%%%%&%%",
"XXOO##$##$#$O $$%%%%%&%&%&@O .        .+++++###+$@o@*%%%%%%%%%%X",
"XXXXO#$##$$@ $$$$$%%&%%&%@  X          .+++$++#%@+o$%%%%&%%&&%%X",
"XXXXXXO###$O$$$$$$$$%&&#@ OOX        ...O+++###$+o$%%%%%%%%%%%XX"
};
